<svg xmlns="http://www.w3.org/2000/svg" width="24" height="24" viewBox="0 0 24 24"><g transform="translate(0 -1028.362)"><circle cx="657.054" cy="437.094" r="15.268" fill="#ef4c45" fill-rule="evenodd" transform="translate(-504.421 696.821) scale(.78596)"/><path fill="#df2209" style="line-height:normal;text-indent:0;text-align:start;text-decoration-line:none;text-transform:none;block-progression:tb" d="M 14.525391 23.716797 A 12 12 0 0 0 15.210938 23.5625 A 12 12 0 0 0 16.347656 23.183594 A 12 12 0 0 0 17.443359 22.695312 A 12 12 0 0 0 18.484375 22.097656 A 12 12 0 0 0 19.458984 21.400391 A 12 12 0 0 0 20.361328 20.607422 A 12 12 0 0 0 21.177734 19.730469 A 12 12 0 0 0 21.904297 18.775391 A 12 12 0 0 0 22.53125 17.753906 A 12 12 0 0 0 23.052734 16.673828 A 12 12 0 0 0 23.464844 15.546875 A 12 12 0 0 0 23.724609 14.53125 L 16.595703 7.4023438 C 15.324403 6.1310438 13.662448 5.4960938 12 5.4960938 C 10.337552 5.4960938 8.6755932 6.1310438 7.4042969 7.4023438 C 6.2919123 8.5147436 5.6644396 9.9276534 5.5253906 11.376953 C 5.5055236 11.583953 5.4960937 11.7922 5.4960938 12 C 5.4960929 13.6625 6.1329971 15.324403 7.4042969 16.595703 L 14.525391 23.716797 z " color="#000" font-family="sans-serif" font-weight="400" transform="translate(0 1028.362)"/><path fill="#fff" d="m 8.4980469,1.9941406 c 1.6624481,0 3.3244031,0.63495 4.5957031,1.90625 2.542594,2.5426 2.542594,6.6507594 0,9.1933594 -2.542593,2.5426 -6.6488128,2.5426 -9.1914062,0 -1.2713002,-1.2713 -1.9082041,-2.933253 -1.9082032,-4.5957031 1e-7,-0.2078063 0.00943,-0.4160046 0.029297,-0.6230469 0.139049,-1.449296 0.7665217,-2.8622219 1.8789063,-3.9746094 1.2712966,-1.2713 2.9332553,-1.90625 4.5957031,-1.90625 z M 10.964844,5.515625 c -0.0013,6.453e-4 -0.0026,0.0013 -0.0039,0.00195 -0.127766,0.00457 -0.252981,0.060383 -0.341797,0.1523438 L 8.4960938,7.7910156 6.375,5.6699219 C 6.2825115,5.5743275 6.1505899,5.5180986 6.0175781,5.5175781 5.621496,5.5161088 5.3833482,6.1015002 5.6679688,6.3769531 L 7.7890625,8.4980469 5.6679688,10.619141 C 5.2853413,10.986506 6.0076353,11.7088 6.375,11.326172 L 8.4960938,9.2050781 10.619141,11.326172 c 0.367364,0.382632 1.089663,-0.339667 0.707031,-0.707031 L 9.2050781,8.4980469 11.326172,6.3769531 C 11.616678,6.0993556 11.366455,5.5028785 10.964844,5.515625 Z" color="#000" font-family="sans-serif" font-weight="400" overflow="visible" transform="translate(3.503 1031.865)" style="line-height:normal;text-indent:0;text-align:start;text-decoration-line:none;text-transform:none;block-progression:tb"/></g></svg>